# xmcd CD database file
#
# Track frame offsets:
#	150
#	11657
#	27522
#	38396
#	58873
#	68286
#	77699
#	88612
#	99397
#	111354
#	121705
#	133405
#	147464
#	173414
#	187290
#	210763
#	221070
#	233313
#	242684
#	263866
#	274816
#	292616
#	300959
#	313934
#
# Disc length: 4345 seconds
#
# Revision: 0
# Processed by: cddbd v1.5.2PL0 Copyright (c) Steve Scherf et al.
# Submitted via: CDex 1.51
#
DISCID=4410f718
DTITLE=Stan Getz - Astrud Gilberto - Starportrait
DYEAR=1964
DGENRE=Jazz
TTITLE0=Corcovado
TTITLE1=Samba dees days
TTITLE2=The shadow of your smile
TTITLE3=Do what you do, do
TTITLE4=The face I love
TTITLE5=Parade
TTITLE6=Blowin' in the wind
TTITLE7=Moonlight in Vermont
TTITLE8=Love
TTITLE9=Nega
TTITLE10=Summer samba
TTITLE11=Holiday
TTITLE12=Desafinado
TTITLE13=One note samba
TTITLE14=The girl from Ipanema
TTITLE15=Agua de beber
TTITLE16=Windy
TTITLE17=Chup, Chup, I got away
TTITLE18=The night has a thousand eyes
TTITLE19=Little Rio
TTITLE20=Keep me in your heart
TTITLE21=The telephone song
TTITLE22=Light my fire
TTITLE23=You didn't have to be so nice
EXTD=YEAR: 1964
EXTT0=
EXTT1=
EXTT2=
EXTT3=
EXTT4=
EXTT5=
EXTT6=
EXTT7=
EXTT8=
EXTT9=
EXTT10=
EXTT11=
EXTT12=
EXTT13=
EXTT14=
EXTT15=
EXTT16=
EXTT17=
EXTT18=
EXTT19=
EXTT20=
EXTT21=
EXTT22=
EXTT23=
PLAYORDER=
